<?xml version="1.0" standalone="no"?>
<!DOCTYPE svg PUBLIC "-//W3C//DTD SVG 20010904//EN"
 "http://www.w3.org/TR/2001/REC-SVG-20010904/DTD/svg10.dtd">
<svg version="1.0" xmlns="http://www.w3.org/2000/svg"
 width="512.000000pt" height="512.000000pt" viewBox="0 0 512.000000 512.000000"
 preserveAspectRatio="xMidYMid meet">
<metadata>
Created by potrace 1.15, written by Peter Selinger 2001-2017
</metadata>
<g transform="translate(0.000000,512.000000) scale(0.100000,-0.100000)"
fill="#000000" stroke="none">
<path d="M992 3707 c-545 -545 -992 -997 -992 -1002 0 -11 1981 -1995 1993
-1995 4 0 7 261 7 580 l0 580 113 0 c327 0 741 -51 1067 -131 777 -191 1373
-582 1868 -1227 40 -52 72 -87 72 -78 0 31 -52 250 -96 406 -372 1321 -1191
2209 -2374 2574 -183 56 -361 97 -612 140 l-38 7 0 569 c0 314 -3 570 -8 570
-4 0 -454 -447 -1000 -993z"/>
</g>
</svg>
