<svg version="1.0" xmlns="http://www.w3.org/2000/svg"
 width="512.000000pt" height="512.000000pt" viewBox="0 0 512.000000 512.000000"
 preserveAspectRatio="xMidYMid meet">
<g transform="translate(0.000000,512.000000) scale(0.100000,-0.100000)"
fill="#FFCC00" stroke="none">
<path d="M805 5114 c-423 -66 -732 -391 -771 -810 -8 -84 11 -135 60 -165 28
-17 53 -19 250 -19 l218 0 38 38 c31 31 40 51 58 126 35 145 79 215 163 261
44 23 69 30 135 33 142 8 245 -40 308 -141 25 -41 30 -61 34 -130 6 -122 -10
-149 -177 -305 -365 -341 -415 -432 -442 -803 -11 -152 -11 -158 9 -201 38
-77 57 -83 282 -83 188 0 196 1 228 23 48 35 59 65 66 194 8 134 22 192 63
251 15 22 99 103 185 179 284 250 379 402 407 650 29 253 -53 485 -230 654
-81 77 -140 116 -242 164 -140 65 -226 82 -432 85 -99 2 -193 1 -210 -1z"/>
<path d="M4510 4815 c-140 -44 -252 -151 -303 -292 -21 -57 -22 -73 -27 -923
l-5 -865 -192 -505 c-105 -278 -195 -513 -198 -522 -6 -16 -72 -18 -993 -20
l-987 -3 -70 -24 c-217 -72 -368 -205 -459 -403 -62 -134 -66 -174 -66 -688 0
-509 0 -512 62 -550 33 -20 46 -20 1565 -20 l1532 0 35 31 c20 17 40 47 46 67
6 22 10 197 10 440 0 325 3 408 14 430 25 48 586 1541 601 1600 13 47 15 196
15 953 0 556 -4 917 -10 950 -22 117 -122 254 -225 307 -101 51 -248 67 -345
37z"/>
<path d="M2705 3984 c-11 -3 -55 -11 -97 -20 -235 -45 -487 -211 -631 -415
-329 -467 -228 -1112 227 -1451 394 -293 953 -273 1316 47 166 146 273 320
332 539 19 69 22 107 22 256 0 150 -3 187 -22 257 -48 178 -134 332 -257 462
-94 100 -180 163 -300 222 -144 70 -267 100 -435 104 -74 2 -144 2 -155 -1z"/>
<path d="M751 2693 c-19 -10 -44 -31 -55 -46 -20 -27 -21 -42 -21 -232 0 -190
1 -205 21 -232 41 -56 70 -63 274 -63 207 0 230 6 270 72 18 30 20 51 20 218
0 204 -7 233 -63 274 -26 19 -44 21 -220 24 -168 2 -196 0 -226 -15z"/>
</g>
</svg>
